# xmcd
#
# Track frame offsets: 
#        150
#        20315
#        40265
#        62331
#        90868
#        110961
#        139239
#        153005
#        175346
#        193198
#        213438
#        239286
#        256404
#        270758
#        289507
#        304542
#        333422
#
# Disc length: 4775 seconds
#
# Revision: 1
# Processed by: cddbd v1.5.2PL0 Copyright (c) Steve Scherf et al.
# Submitted via: ExactAudioCopy v1.3
#
DISCID=e112a511
DTITLE=Various Artist - Akella Presents - vol.208 - Blues-Rock Instru
DTITLE=mental  CD2
DYEAR=2019
DGENRE=Blues
TTITLE0=Blues Saraceno - Stinky Kitty
TTITLE1=Blues Cousins - Love Matters
TTITLE2=Universal Hippies - Mariner's ream
TTITLE3=Rocky Whelan - Ecstasy
TTITLE4=Jeff Liberman - Madeline
TTITLE5=Toler Townsend Band - Ali Shuffle
TTITLE6=Dashboard Rattle - Bamboozle
TTITLE7=Cirkus Prutz - Blues for Fallen Brothers
TTITLE8=Jay Hooks - Greenlight
TTITLE9=Quiet The Dog - Buckshot Blues
TTITLE10=Dirty Dave Osti - In The Wind
TTITLE11=Jay O'Rourke - Just Like Always
TTITLE12=JP Stingray - After Hours
TTITLE13=Rob Tognoni - The Ironyard
TTITLE14=Jimmy Thackery - Hang Up And Drive
TTITLE15=Dan Patlansky - Namaste,Love City
TTITLE16=Vince Agwada - She Never Said...
EXTD=
EXTT0=
EXTT1=
EXTT2=
EXTT3=
EXTT4=
EXTT5=
EXTT6=
EXTT7=
EXTT8=
EXTT9=
EXTT10=
EXTT11=
EXTT12=
EXTT13=
EXTT14=
EXTT15=
EXTT16=
PLAYORDER=
